<svg xmlns="http://www.w3.org/2000/svg" width="148.425" height="228.912" viewBox="0 0 148.425 246">
  <g id="Tckt_icon2" transform="translate(-888.702 -754.833)">
    <g id="Group_1442" data-name="Group 1442" transform="translate(599.742 313.845)">
      <g id="Group_1442-2" data-name="Group 1442" transform="translate(288.96 440.988)">
        <path id="Path_5993" data-name="Path 5993" d="M334.9,662.009c-9.172.012-19.4.034-32.495.067-3.426.008-4.129-.942-4.115-3.691.117-22.664.065-115.365.065-138.032,0-22.553.055-45.1-.071-67.656-.016-2.862.61-3.933,4.273-3.911,24.24.148,19.563.135,43.8.012,3.442-.018,4.469.738,4.418,3.794-.206,12.639-.008,25.285-.15,37.926-.03,2.494.6,3.3,3.669,3.268,14.753-.152,29.51.01,44.264-.135,3.19-.032,3.966.829,3.958,3.481-.044,12.855-.067,38.219-.075,65.52,3.082.022,6.163.051,9.247.069,0-30.118.026-58.409.057-73.807a6.511,6.511,0,0,0-2.652-5.362q-23.816-20.461-47.45-41.081c-1.526-1.33-3.1-1.431-4.966-1.431-30.834.014-32.75.053-63.585-.053-3.266-.01-4.146.712-4.131,3.572.137,25.291.079,50.583.079,75.874s.034,120.62-.053,145.911c-.008,2.454.317,3.563,3.737,3.555,18.14-.042,32.164-.067,45.178-.077C336.792,667.26,335.8,664.647,334.9,662.009Zm24.77-208.991c12.7,11.06,25.2,21.954,37.839,32.964-7.373,0-14.949,0-22.526,0q-6.324,0-12.645,0c-1.356,0-2.684.081-2.68-1.651Q359.69,468.681,359.666,453.018Z" transform="translate(-288.96 -440.988)" fill="#082952"/>
        <path id="Path_5994" data-name="Path 5994" d="M322.034,502.935c14.227,0,28.453.087,42.678-.065,3.293-.036,4.135.99,3.848,3.569-.241,2.159.818,4.443-3.681,4.418-28.845-.16-28.776-.158-57.621,0-4.511.026-3.386-2.306-3.65-4.439-.323-2.626.637-3.572,3.877-3.539C321.973,503.016,307.544,502.935,322.034,502.935Z" transform="translate(-274.675 -380.393)" fill="#082952"/>
        <path id="Path_5995" data-name="Path 5995" d="M321.618,496.419c-14.353,0,.208-.117-14.142.081-3.685.049-4.111-1.277-3.865-3.826.206-2.159-.823-4.342,3.665-4.313,28.837.182,28.76.182,57.6,0,4.485-.028,3.464,2.149,3.668,4.311.241,2.547-.176,3.877-3.863,3.828C350.329,496.3,335.973,496.419,321.618,496.419Z" transform="translate(-274.668 -394.599)" fill="#082952"/>
        <path id="Path_5996" data-name="Path 5996" d="M321.61,481.853c-14.353,0,.21-.115-14.14.077-3.741.051-3.994-1.419-3.879-3.9.1-2.213-.344-4.028,3.664-4.006,28.837.154,28.758.154,57.6,0,3.986-.022,3.592,1.76,3.681,3.992.1,2.46-.1,3.96-3.863,3.911C350.319,481.736,335.963,481.853,321.61,481.853Z" transform="translate(-274.653 -408.633)" fill="#082952"/>
        <path id="Path_5997" data-name="Path 5997" d="M318.449,459.553c2.529-.049,3.614.562,3.22,2.83a11.325,11.325,0,0,0-.006,3.072c.16,1.55-.669,1.906-2.32,1.9-13.969-.044.98-.051-12.99.006-2.044.01-2.933-.55-2.717-2.343a8.112,8.112,0,0,0,.016-2.387c-.424-2.355.548-3.161,3.392-3.09" transform="translate(-274.666 -422.822)" fill="#082952"/>
      </g>
    </g>
    <path id="paid_FILL0_wght400_GRAD0_opsz48" d="M44.362,78.74h5.984V73.083Q56.981,72.321,60.68,69a11.325,11.325,0,0,0,3.7-8.867,12.929,12.929,0,0,0-3.155-9.03q-3.155-3.481-10.662-6.636a46.69,46.69,0,0,1-9.138-4.678A6.528,6.528,0,0,1,38.6,34.244a6.462,6.462,0,0,1,2.448-5.331,10.424,10.424,0,0,1,6.691-1.958,10.311,10.311,0,0,1,5.657,1.523,11.914,11.914,0,0,1,4.025,4.569l5.222-2.5a15.48,15.48,0,0,0-4.9-5.984,14.778,14.778,0,0,0-7.18-2.611V16.4H44.579v5.548a14.5,14.5,0,0,0-8.758,4.08,11.354,11.354,0,0,0-3.209,8.214,11.255,11.255,0,0,0,3.264,8.486A31.623,31.623,0,0,0,45.667,48.6q7.289,3.046,10.009,5.494a7.8,7.8,0,0,1,2.72,6.038,6.629,6.629,0,0,1-2.883,5.6,11.879,11.879,0,0,1-7.235,2.121,12.6,12.6,0,0,1-7.561-2.393,12.408,12.408,0,0,1-4.624-6.527l-5.548,1.849a22.78,22.78,0,0,0,5.6,7.887,20.269,20.269,0,0,0,8.214,4.188Zm3.155,12.293a42.106,42.106,0,0,1-16.863-3.427A43.843,43.843,0,0,1,7.427,64.379,42.106,42.106,0,0,1,4,47.517,42.374,42.374,0,0,1,7.427,30.545a43.49,43.49,0,0,1,9.356-13.817,44.609,44.609,0,0,1,13.871-9.3A42.106,42.106,0,0,1,47.517,4,42.374,42.374,0,0,1,64.488,7.427,43.449,43.449,0,0,1,87.606,30.545a42.375,42.375,0,0,1,3.427,16.971,42.107,42.107,0,0,1-3.427,16.863A44.609,44.609,0,0,1,78.3,78.25a43.49,43.49,0,0,1-13.817,9.356A42.375,42.375,0,0,1,47.517,91.033Zm0-6.527A35.593,35.593,0,0,0,73.735,73.681a35.736,35.736,0,0,0,10.77-26.164A35.684,35.684,0,0,0,73.735,21.3a35.684,35.684,0,0,0-26.219-10.77A35.736,35.736,0,0,0,21.352,21.3,35.593,35.593,0,0,0,10.527,47.517,35.646,35.646,0,0,0,21.352,73.681,35.646,35.646,0,0,0,47.517,84.506ZM47.517,47.517Z" transform="translate(946.094 892.712)" fill="#036"/>
  </g>
</svg>
