<?xml version="1.0" encoding="utf-8"?>
<!-- Generator: Adobe Illustrator 25.2.0, SVG Export Plug-In . SVG Version: 6.00 Build 0)  -->
<svg version="1.1" id="Layer_1" xmlns="http://www.w3.org/2000/svg" xmlns:xlink="http://www.w3.org/1999/xlink" x="0px" y="0px"
	 viewBox="0 0 123.2 90" style="enable-background:new 0 0 123.2 90;" xml:space="preserve">
<style type="text/css">
	.st0{fill:none;stroke:#1C3664;stroke-width:2.5;stroke-miterlimit:10;}
	.st1{fill:#1C3664;}
	.st2{fill:none;stroke:#1C3664;stroke-width:1.274;stroke-miterlimit:10;}
	.st3{fill:none;stroke:#1C3664;stroke-width:1.0864;stroke-miterlimit:10;}
	.st4{fill:none;}
</style>
<g>
	<g>
		<path class="st0" d="M6.6,22.6c-2.6,0-4.8,4.7-4.8,4.7s-1,12.4,7,21.6s23,7.8,23,7.8s3.6-2.5,4-5.1c0.4-2.6-5.5-6.7-8.1-6.5
			s-1.8,2.4-6.5,2.5s-11.5-9-10.7-10.7c0.7-1.7,3-3.2,3.3-5.5C14,29.1,9.2,22.6,6.6,22.6z"/>
		<g>
			<path class="st0" d="M73.4,81.6H48.1c-4.4,0-8-3.6-8-8V16.4c0-4.4,3.6-8,8-8h25.3c4.4,0,8,3.6,8,8v57.2
				C81.4,78,77.8,81.6,73.4,81.6z"/>
			<g>
				<path class="st1" d="M53.1,46.4c2.4,1.6,4.8,2.7,7.7,2.7c2.6,0,4-1.1,4-2.7c0-4.3-12.7-3.6-12.7-11.1c0-4.1,3.5-6.7,8.7-6.7
					c3.8,0,6.1,1.4,8.1,3.4l-2.5,2.8c-1.9-1.4-3.5-2.2-6-2.2c-2.3,0-3.7,1-3.7,2.7c0,3.8,12.7,3.2,12.7,10.8c0,4.1-3.6,7-9.4,7
					c-3.2,0-6.9-1.4-9.2-3.4L53.1,46.4z M58.9,23.3h3.3v7h-3.3V23.3z M62.2,51.2v7.9h-3.3v-7.9H62.2z"/>
			</g>
			<line class="st2" x1="40.1" y1="65.3" x2="81.4" y2="65.3"/>
			<circle class="st1" cx="60.1" cy="73.4" r="3.9"/>
			<line class="st2" x1="39.5" y1="17" x2="80.7" y2="17"/>
		</g>
		<g>
			<path class="st0" d="M114.8,53.9H93.2c-3.7,0-6.6-3-6.6-6.6V32c0-3.7,3-6.6,6.6-6.6h21.6c3.7,0,6.6,3,6.6,6.6v15.3
				C121.4,51,118.5,53.9,114.8,53.9z"/>
			<path class="st3" d="M87.9,27.2l13.3,15.3c0,0,3.1,3,6.6,0c3.4-3,12.6-15.3,12.6-15.3"/>
			<line class="st3" x1="88.5" y1="53" x2="99.8" y2="41.6"/>
			<line class="st3" x1="119.4" y1="53" x2="108.2" y2="41.6"/>
		</g>
	</g>
	<rect class="st4" width="123.2" height="90"/>
</g>
</svg>
