<svg id="Layer_1" data-name="Layer 1" xmlns="http://www.w3.org/2000/svg" viewBox="0 0 178.83 100"><defs><style>.cls-1,.cls-3{fill:none;stroke:#1c3664;stroke-miterlimit:10;}.cls-1{stroke-width:2.5px;}.cls-2{fill:#1c3664;}.cls-3{stroke-width:1.5px;}</style></defs><path class="cls-1" d="M12.67,24c-3.4,0-6.38,6.26-6.38,6.26S5,46.71,15.54,58.83,46.06,69.15,46.06,69.15s4.79-3.3,5.32-6.81-7.23-8.93-10.74-8.61S38.19,56.92,32,57,16.82,45.12,17.78,42.88s4-4.25,4.36-7.23S16.08,24,12.67,24Z"/><rect class="cls-1" x="64.04" y="8.66" width="46.6" height="82.68" rx="9.4"/><path class="cls-2" d="M78.53,52.65a14.67,14.67,0,0,0,8.8,3.22C91,55.87,93,54.21,93,51.8,93,45.93,78,47,78,38.74c0-4.45,3.88-7.24,9.32-7.24a11.53,11.53,0,0,1,8.76,3.64L94,37.46c-2.13-1.7-3.84-2.7-7-2.7s-5.16,1.52-5.16,3.88c0,5.21,15,4.21,15,12.87,0,4.55-4.07,7.62-10,7.62a16.58,16.58,0,0,1-10.17-3.74Zm7.2-27.3h2.83V33H85.73Zm2.83,32.41V66H85.73V57.76Z"/><line class="cls-3" x1="64.04" y1="72.99" x2="110.64" y2="72.99"/><circle class="cls-2" cx="86.62" cy="82.11" r="4.43"/><line class="cls-3" x1="63.32" y1="18.34" x2="109.92" y2="18.34"/><rect class="cls-1" x="125.23" y="27.66" width="46.15" height="37.87" rx="9.16"/><path class="cls-3" d="M126.94,30.16l17.64,20.25a6.34,6.34,0,0,0,8.7,0c4.58-4,16.73-20.25,16.73-20.25"/><line class="cls-3" x1="127.77" y1="64.28" x2="142.71" y2="49.13"/><line class="cls-3" x1="168.75" y1="64.28" x2="153.82" y2="49.13"/></svg>