<svg xmlns="http://www.w3.org/2000/svg" width="50" height="50" viewBox="0 0 50 50">
  <g id="Group_31" data-name="Group 31" transform="translate(-417 -768)">
    <g id="Group_25" data-name="Group 25" transform="translate(-843 363)">
      <g id="Group_23" data-name="Group 23">
        <g id="Ellipse_294" data-name="Ellipse 294" transform="translate(1260 405)" fill="none" stroke="#009cde" stroke-width="2">
          <circle cx="25" cy="25" r="25" stroke="none"/>
          <circle cx="25" cy="25" r="24" fill="none"/>
        </g>
      </g>
    </g>
    <g id="picture_as_pdf_black_24dp" transform="translate(427 778)">
      <path id="Path_79" data-name="Path 79" d="M0,0H30V30H0Z" fill="none"/>
      <path id="Path_80" data-name="Path 80" d="M25.4,2H9.8A2.608,2.608,0,0,0,7.2,4.6V20.2a2.608,2.608,0,0,0,2.6,2.6H25.4A2.608,2.608,0,0,0,28,20.2V4.6A2.608,2.608,0,0,0,25.4,2Zm0,18.2H9.8V4.6H25.4ZM4.6,7.2H2V25.4A2.608,2.608,0,0,0,4.6,28H22.8V25.4H4.6ZM20.2,15V11.1a1.3,1.3,0,0,0-1.3-1.3H16.3v6.5h2.6A1.3,1.3,0,0,0,20.2,15Zm-2.6-3.9h1.3V15H17.6Zm5.2,2.6h1.3V12.4H22.8V11.1h1.3V9.8H21.5v6.5h1.3Zm-10.4,0h1.3A1.3,1.3,0,0,0,15,12.4V11.1a1.3,1.3,0,0,0-1.3-1.3H11.1v6.5h1.3Zm0-2.6h1.3v1.3H12.4Z" transform="translate(0 0)" fill="#009cde"/>
    </g>
  </g>
</svg>
