<svg xmlns="http://www.w3.org/2000/svg" width="50" height="50" viewBox="0 0 50 50">
  <g id="Group_24" data-name="Group 24" transform="translate(-1260 -405)">
    <g id="Group_23" data-name="Group 23">
      <g id="Ellipse_294" data-name="Ellipse 294" transform="translate(1260 405)" fill="none" stroke="#009cde" stroke-width="2">
        <circle cx="25" cy="25" r="25" stroke="none"/>
        <circle cx="25" cy="25" r="24" fill="none"/>
      </g>
    </g>
    <g id="print_black_24dp" transform="translate(1268 413)">
      <path id="Path_76" data-name="Path 76" d="M0,0H35V35H0Z" fill="none"/>
      <path id="Path_77" data-name="Path 77" d="M28.35,11.056H6.65A4.738,4.738,0,0,0,2,15.889v9.667H8.2V32H26.8V25.556H33V15.889A4.738,4.738,0,0,0,28.35,11.056ZM23.7,28.778H11.3V20.722H23.7ZM28.35,17.5a1.612,1.612,0,1,1,1.55-1.611A1.586,1.586,0,0,1,28.35,17.5ZM26.8,3H8.2V9.444H26.8Z" transform="translate(0)" fill="#009cde"/>
    </g>
  </g>
</svg>
