<svg xmlns="http://www.w3.org/2000/svg" width="162.32" height="245.769" viewBox="0 0 162.32 246">
  <g id="Tckt_icon3" transform="translate(-446.731 -440.988)">
    <g id="Group_1437" data-name="Group 1437" transform="translate(446.731 440.988)">
      <path id="Path_5987" data-name="Path 5987" d="M492.655,661.958c-9.168.012-19.4.034-32.486.067-3.427.008-4.128-.942-4.114-3.69.115-22.659.065-115.339.065-138,0-22.548.055-45.094-.071-67.641-.016-2.861.607-3.932,4.272-3.91,24.234.148,19.558.135,43.792.012,3.441-.018,4.468.738,4.417,3.793-.206,12.636-.008,25.279-.152,37.917-.028,2.493.6,3.3,3.671,3.267,14.75-.152,29.5.01,44.253-.135,3.19-.032,3.965.829,3.956,3.481-.042,12.852-.067,38.21-.073,65.505,3.081.022,6.162.051,9.245.069,0-30.111.024-58.4.057-73.791a6.515,6.515,0,0,0-2.651-5.361q-23.811-20.457-47.439-41.071c-1.526-1.33-3.1-1.431-4.965-1.431-30.827.014-32.745.053-63.57-.053-3.265-.01-4.146.712-4.13,3.572.137,25.285.079,50.572.079,75.856s.034,120.593-.053,145.877c-.008,2.454.317,3.562,3.736,3.554,18.136-.042,32.155-.067,45.168-.077C494.552,667.208,493.557,664.6,492.655,661.958Zm24.766-208.943c12.694,11.057,25.194,21.949,37.83,32.957-7.371,0-14.946,0-22.521,0q-6.322,0-12.644,0c-1.353,0-2.683.081-2.679-1.65Q517.446,468.675,517.421,453.015Z" transform="translate(-446.731 -440.988)" fill="#082952"/>
      <path id="Path_5988" data-name="Path 5988" d="M479.8,502.935c14.221,0,28.447.087,42.666-.065,3.295-.036,4.136.989,3.847,3.568-.239,2.159.819,4.442-3.679,4.417-28.839-.16-28.769-.158-57.608,0-4.51.026-3.386-2.305-3.649-4.438-.323-2.626.635-3.572,3.876-3.538C479.739,503.016,465.314,502.935,479.8,502.935Z" transform="translate(-432.452 -380.421)" fill="#082952"/>
      <path id="Path_5989" data-name="Path 5989" d="M479.385,496.417c-14.35,0,.208-.117-14.138.081-3.685.049-4.11-1.276-3.867-3.825.208-2.159-.821-4.341,3.665-4.312,28.833.182,28.756.182,57.588,0,4.484-.028,3.461,2.149,3.667,4.31.241,2.547-.176,3.876-3.863,3.827C508.09,496.3,493.736,496.417,479.385,496.417Z" transform="translate(-432.447 -394.62)" fill="#082952"/>
      <path id="Path_5990" data-name="Path 5990" d="M479.377,481.851c-14.35,0,.21-.115-14.138.077-3.74.051-3.993-1.419-3.876-3.894.1-2.212-.346-4.027,3.663-4.005,28.831.154,28.752.154,57.582,0,3.985-.022,3.591,1.759,3.68,3.991.1,2.46-.1,3.96-3.863,3.91C508.079,481.734,493.727,481.851,479.377,481.851Z" transform="translate(-432.43 -408.648)" fill="#082952"/>
      <path id="Path_5991" data-name="Path 5991" d="M476.216,459.553c2.529-.049,3.613.562,3.22,2.83a11.317,11.317,0,0,0-.008,3.071c.162,1.549-.667,1.906-2.317,1.9-13.966-.044.98-.051-12.987.006-2.044.01-2.935-.55-2.717-2.343a8.178,8.178,0,0,0,.016-2.386c-.424-2.355.548-3.16,3.39-3.089" transform="translate(-432.443 -422.831)" fill="#082952"/>
    </g>
    <g id="Group_1438" data-name="Group 1438" transform="translate(497.132 579.76)">
      <path id="Path_5992" data-name="Path 5992" d="M515.256,568.561l1.854-2.031-6.492-6.35c-.66.8-1.448,1.669-2.124,2.62a1.519,1.519,0,0,0-.07,1.171,6.467,6.467,0,0,1-1.829,6.987c-1.387,1.394-2.76,2.8-4.172,4.17a6.4,6.4,0,0,1-9.364.014q-9.361-9.3-18.651-18.669c-2.98-3.009-2.921-6.767.059-9.792,1.345-1.365,2.7-2.717,4.059-4.075a6.4,6.4,0,0,1,6.638-1.694,1.727,1.727,0,0,0,1.942-.509c4.85-4.881,9.729-9.733,14.555-14.637a1.777,1.777,0,0,0,.318-1.478,6.342,6.342,0,0,1,1.466-6.555c1.556-1.642,3.14-3.257,4.784-4.809a6.348,6.348,0,0,1,8.92.052q9.652,9.531,19.187,19.182a6.344,6.344,0,0,1-.065,9.021c-1.5,1.557-3,3.111-4.543,4.626a5.986,5.986,0,0,1-6.1,1.644,2.374,2.374,0,0,0-2.777.912,15.6,15.6,0,0,1-1.732,1.435c2.138,2.138,4.046,4.048,5.958,5.954a3.617,3.617,0,0,0,.5.322l2.138-2.016c2.415,2.466,4.759,4.9,7.147,7.294q15.983,16.026,31.979,32.039a10.215,10.215,0,1,1-14.38,14.508q-19.426-19.366-38.777-38.8A6.724,6.724,0,0,1,515.256,568.561Zm13.826,6.953c.126.137.315.361.521.568q14.044,14.071,28.093,28.134a5.39,5.39,0,0,0,7.758.324c2.239-2.18,2.16-5.429-.248-7.848q-11.9-11.956-23.82-23.89c-1.619-1.628-3.156-3.336-4.694-4.967ZM505.577,529.1l-15.315,15.362,14.555,14.693c5.122-5.125,10.282-10.289,15.366-15.378ZM527,542.908a3.971,3.971,0,0,0,1.135-.5c1.59-1.532,3.178-3.073,4.69-4.681a1.543,1.543,0,0,0-.165-2.347q-9.229-9.218-18.455-18.444c-1.133-1.129-1.876-1.137-3.011-.041-1.271,1.228-2.516,2.487-3.748,3.757-1.219,1.253-1.241,1.849.005,3.1q9.1,9.145,18.241,18.247A9.233,9.233,0,0,0,527,542.908Zm-43.708,2.406a7.8,7.8,0,0,0-1.293.813c-1.381,1.327-2.744,2.678-4.073,4.059-1,1.043-.975,1.833.076,2.913,1.538,1.586,3.108,3.14,4.669,4.7q6.712,6.728,13.43,13.45c1.39,1.387,1.894,1.369,3.289-.018,1.255-1.248,2.489-2.516,3.744-3.762a1.725,1.725,0,0,0-.034-2.8q-9.172-9.172-18.331-18.358A9.88,9.88,0,0,0,483.293,545.314Zm42,26.3,7.368-7.246-2.9-3.223-7.51,7.5Zm-7.31-17.784-3.28,2.836,6.025,6.206,3.151-3.122Z" transform="translate(-566.138 -402.673) rotate(-11)" fill="#082952"/>
    </g>
  </g>
</svg>
