<svg id="Layer_1" data-name="Layer 1" xmlns="http://www.w3.org/2000/svg" viewBox="0 0 133.45 100"><defs><style>.cls-1,.cls-2,.cls-3{fill:none;stroke:#1c3664;}.cls-1,.cls-3{stroke-linecap:round;stroke-linejoin:round;}.cls-1{stroke-width:2.5px;}.cls-2{stroke-miterlimit:10;stroke-width:1.08px;}.cls-3{stroke-width:1.5px;}</style></defs><path class="cls-1" d="M54.13,42.64V33.71c0-4.59,6.74-7.27,6.74-7.27H73.35s5.86,2.8,5.86,7.27v8.93Z"/><ellipse class="cls-1" cx="67.19" cy="15.75" rx="8.76" ry="9.95"/><ellipse class="cls-2" cx="104.38" cy="15.75" rx="8.76" ry="9.95"/><line class="cls-3" x1="67.03" y1="49.15" x2="44.37" y2="49.15"/><line class="cls-3" x1="89.79" y1="49.15" x2="67.03" y2="49.15"/><line class="cls-3" x1="67.03" y1="49.15" x2="67.03" y2="92.47"/><line class="cls-3" x1="67.03" y1="49.15" x2="67.03" y2="49.15"/><ellipse class="cls-1" cx="29.65" cy="15.75" rx="8.76" ry="9.95"/><path class="cls-1" d="M38,53.8s0-18.92,0-20.09-1.64-5.53-8.91-6.87a9.35,9.35,0,0,0-4.75,0,9.86,9.86,0,0,0-6.53,7.77c-.13.68-.65,22.12,0,23.33s.54,1.54,3.61,1.62l10.93.28S37.75,62.11,38,67c3.56-.34,6.68.65,8.31,2.43,0,0-.49,19.49.35,20.78H57.94c1.68-.79-1.73-3.57-3.07-5.35,0,0-.67-19.31-.69-20.18s-1.59-4-5.54-4.75l-6.33-.24S38,60,38,53.8Z"/><line class="cls-3" x1="37.92" y1="91.8" x2="37.91" y2="67.19"/><polyline class="cls-3" points="17.08 67.19 17.08 67.19 8.84 91.82"/><path class="cls-3" d="M37.91,67.19V66.4s-1-6.93-5.64-7.13-8.9-.19-11.72-.29-3.37-1.78-3.42-2.48S17,41.41,16.54,39.24A8.15,8.15,0,0,0,6.59,34s1.95,28,4.16,30.9a5.34,5.34,0,0,0,5.14,2.25"/><line class="cls-3" x1="15.89" y1="67.19" x2="37.91" y2="67.19"/><line class="cls-3" x1="37.91" y1="67.19" x2="37.91" y2="67.19"/><line class="cls-3" x1="15.89" y1="67.19" x2="15.89" y2="67.19"/><ellipse class="cls-1" cx="103.98" cy="15.75" rx="8.76" ry="9.95"/><path class="cls-1" d="M95.67,53.8s0-18.92,0-20.09,1.64-5.53,8.91-6.87a9.35,9.35,0,0,1,4.75,0,9.86,9.86,0,0,1,6.53,7.77c.12.68.64,22.12,0,23.33s-.54,1.54-3.61,1.62l-10.93.28S95.87,62.11,95.68,67c-3.57-.34-6.68.65-8.32,2.43,0,0,.5,19.49-.34,20.78H75.69c-1.68-.79,1.73-3.57,3.07-5.35,0,0,.61-19.22.69-20.18s1.58-4,5.54-4.75l6.32-.24S95.67,60,95.67,53.8Z"/><line class="cls-3" x1="95.7" y1="91.8" x2="95.71" y2="67.19"/><polyline class="cls-3" points="116.54 67.19 116.54 67.19 124.79 91.82"/><path class="cls-3" d="M95.71,67.19V66.4s1-6.93,5.64-7.13,8.91-.19,11.73-.29,3.36-1.78,3.41-2.48.15-15.09.6-17.26A8.13,8.13,0,0,1,127,34s-2,28-4.15,30.9a5.34,5.34,0,0,1-5.14,2.25"/><line class="cls-3" x1="117.74" y1="67.19" x2="95.71" y2="67.19"/><line class="cls-3" x1="95.71" y1="67.19" x2="95.71" y2="67.19"/><line class="cls-3" x1="117.74" y1="67.19" x2="117.74" y2="67.19"/></svg>