<?xml version="1.0" encoding="utf-8"?>
<!-- Generator: Adobe Illustrator 25.2.0, SVG Export Plug-In . SVG Version: 6.00 Build 0)  -->
<svg version="1.1" id="Layer_1" xmlns="http://www.w3.org/2000/svg" xmlns:xlink="http://www.w3.org/1999/xlink" x="0px" y="0px"
	 viewBox="0 0 123.2 90.1" style="enable-background:new 0 0 123.2 90.1;" xml:space="preserve">
<style type="text/css">
	.st0{fill:none;stroke:#1C3664;stroke-width:2.5;stroke-linecap:round;stroke-linejoin:round;stroke-miterlimit:10;}
	.st1{fill:none;stroke:#1C3664;stroke-width:1.5;stroke-linecap:round;stroke-linejoin:round;stroke-miterlimit:10;}
	.st2{fill:none;}
</style>
<g>
	<g>
		<path class="st0" d="M49,39.5c0,0,0-4.3,0-8.9s6.7-7.3,6.7-7.3h12.5c0,0,5.9,2.8,5.9,7.3s0,8.9,0,8.9H49z"/>
		<ellipse class="st0" cx="62" cy="12.6" rx="8.8" ry="10"/>
		<g>
			<line class="st1" x1="61.9" y1="46" x2="39.2" y2="46"/>
			<line class="st1" x1="84.7" y1="46" x2="61.9" y2="46"/>
			<line class="st1" x1="61.9" y1="46" x2="61.9" y2="89.4"/>
			<line class="st1" x1="61.9" y1="46" x2="61.9" y2="46"/>
		</g>
		<ellipse class="st0" cx="24.5" cy="12.6" rx="8.8" ry="10"/>
		<path class="st0" d="M32.8,50.7c0,0,0-18.9,0-20.1c0-1.2-1.6-5.5-8.9-6.9c-3-0.6-4.7,0-4.7,0s-5.2,1.4-6.5,7.8
			c-0.1,0.7-0.6,22.1,0,23.3c0.6,1.2,0.5,1.5,3.6,1.6c3.1,0.1,10.9,0.3,10.9,0.3s5.4,2.3,5.6,7.1c3.6-0.3,6.7,0.6,8.3,2.4
			c0,0-0.5,19.5,0.3,20.8h11.3c1.7-0.8-1.7-3.6-3.1-5.3c0,0-0.7-19.3-0.7-20.2c0-0.9-1.6-4-5.5-4.7l-6.3-0.2
			C37.2,56.5,32.8,56.9,32.8,50.7z"/>
		<g>
			<line class="st1" x1="32.8" y1="88.7" x2="32.8" y2="64.1"/>
			<polyline class="st1" points="11.9,64.1 11.9,64.1 3.7,88.7 			"/>
			<path class="st1" d="M32.8,64.1l0-0.8c0,0-1-6.9-5.6-7.1c-4.6-0.2-8.9-0.2-11.7-0.3S12,54.1,12,53.4c0-0.7-0.1-15.1-0.6-17.3
				c-0.4-2.2-4.3-6.8-9.9-5.2c0,0,1.9,28,4.2,30.9c2.2,2.9,5.1,2.2,5.1,2.2"/>
			<line class="st1" x1="10.7" y1="64.1" x2="32.8" y2="64.1"/>
			<line class="st1" x1="32.8" y1="64.1" x2="32.8" y2="64.1"/>
			<line class="st1" x1="10.7" y1="64.1" x2="10.7" y2="64.1"/>
		</g>
		<ellipse class="st0" cx="98.8" cy="12.6" rx="8.8" ry="10"/>
		<path class="st0" d="M90.5,50.7c0,0,0-18.9,0-20.1c0-1.2,1.6-5.5,8.9-6.9c3-0.6,4.7,0,4.7,0s5.2,1.4,6.5,7.8
			c0.1,0.7,0.6,22.1,0,23.3c-0.6,1.2-0.5,1.5-3.6,1.6c-3.1,0.1-10.9,0.3-10.9,0.3s-5.4,2.3-5.6,7.1c-3.6-0.3-6.7,0.6-8.3,2.4
			c0,0,0.5,19.5-0.3,20.8H70.5c-1.7-0.8,1.7-3.6,3.1-5.3c0,0,0.6-19.2,0.7-20.2c0.1-1,1.6-4,5.5-4.7l6.3-0.2
			C86.2,56.5,90.5,56.9,90.5,50.7z"/>
		<g>
			<line class="st1" x1="90.6" y1="88.7" x2="90.6" y2="64.1"/>
			<polyline class="st1" points="111.4,64.1 111.4,64.1 119.6,88.7 			"/>
			<path class="st1" d="M90.6,64.1l0-0.8c0,0,1-6.9,5.6-7.1c4.6-0.2,8.9-0.2,11.7-0.3s3.4-1.8,3.4-2.5c0-0.7,0.1-15.1,0.6-17.3
				s4.3-6.8,9.9-5.2c0,0-1.9,28-4.2,30.9c-2.2,2.9-5.1,2.2-5.1,2.2"/>
			<line class="st1" x1="112.6" y1="64.1" x2="90.6" y2="64.1"/>
			<line class="st1" x1="90.6" y1="64.1" x2="90.6" y2="64.1"/>
			<line class="st1" x1="112.6" y1="64.1" x2="112.6" y2="64.1"/>
		</g>
	</g>
	<rect class="st2" width="123.2" height="90"/>
</g>
</svg>
