<svg xmlns="http://www.w3.org/2000/svg" width="50" height="50" viewBox="0 0 50 50">
  <g id="Group_23" data-name="Group 23" transform="translate(-1260 -405)">
    <g id="Ellipse_294" data-name="Ellipse 294" transform="translate(1260 405)" fill="none" stroke="#009cde" stroke-width="2">
      <circle cx="25" cy="25" r="25" stroke="none"/>
      <circle cx="25" cy="25" r="24" fill="none"/>
    </g>
    <g id="receipt_long_black_24dp" transform="translate(1267 412)">
      <path id="Path_40" data-name="Path 40" d="M0,0H35V35H0Z" fill="none"/>
      <g id="Group_20" data-name="Group 20" transform="translate(4.75 3.167)">
        <path id="Path_41" data-name="Path 41" d="M26.375,4.15,24.25,2,22.125,4.15,20,2,17.875,4.15,15.75,2,13.625,4.15,11.5,2,9.375,4.15,7.25,2V22.067H3v4.3a4.269,4.269,0,0,0,4.25,4.3h17a4.269,4.269,0,0,0,4.25-4.3V2Zm-.708,22.217a1.417,1.417,0,1,1-2.833,0v-4.3H10.083V6.3H25.667Z" transform="translate(-3 -2)" fill="#009cde"/>
        <rect id="Rectangle_738" data-name="Rectangle 738" width="8" height="4" transform="translate(8.75 6.984)" fill="#009cde"/>
        <rect id="Rectangle_739" data-name="Rectangle 739" width="3" height="4" transform="translate(18.25 6.984)" fill="#009cde"/>
        <rect id="Rectangle_740" data-name="Rectangle 740" width="8" height="3" transform="translate(8.75 11.49)" fill="#009cde"/>
        <rect id="Rectangle_741" data-name="Rectangle 741" width="3" height="3" transform="translate(18.25 11.49)" fill="#009cde"/>
      </g>
    </g>
  </g>
</svg>
