<svg id="Layer_1" data-name="Layer 1" xmlns="http://www.w3.org/2000/svg" viewBox="0 0 111.74 89.1"><defs><style>.cls-1,.cls-2,.cls-3,.cls-4{fill:none;stroke:#1c3462;stroke-miterlimit:10;}.cls-1,.cls-3,.cls-4{stroke-width:1.5px;}.cls-1{stroke-dasharray:4 4;}.cls-2{stroke-width:2.5px;}.cls-4{stroke-linecap:round;}.cls-5{fill:#1c3664;}</style></defs><circle id="Ellipse_3" data-name="Ellipse 3" class="cls-1" cx="55.5" cy="30.54" r="20.38"/><rect id="Rectangle_55" data-name="Rectangle 55" class="cls-2" x="1.25" y="1.25" width="109.24" height="75.28" rx="1.76"/><line id="Line_4" data-name="Line 4" class="cls-3" x1="47.76" y1="77.9" x2="47.76" y2="88.61"/><line id="Line_5" data-name="Line 5" class="cls-3" x1="64.18" y1="77.9" x2="64.18" y2="88.61"/><line id="Line_6" data-name="Line 6" class="cls-4" x1="31.71" y1="88.35" x2="79.29" y2="88.35"/><line id="Line_7" data-name="Line 7" class="cls-3" x1="1.25" y1="59.08" x2="110.49" y2="59.08"/><path class="cls-5" d="M59.13,40.27V38.94a5.87,5.87,0,0,1,.77-3.08,9.89,9.89,0,0,1,2.66-2.64,13.34,13.34,0,0,0,2.39-2,3.13,3.13,0,0,0,.72-2.05,2.06,2.06,0,0,0-.87-1.78,4.07,4.07,0,0,0-2.42-.62,10.14,10.14,0,0,0-3.07.48,20.45,20.45,0,0,0-3.1,1.29l-2-3.95a19.83,19.83,0,0,1,3.92-1.63,16,16,0,0,1,4.62-.63,8.8,8.8,0,0,1,6,1.85,5.92,5.92,0,0,1,2.12,4.69,6.55,6.55,0,0,1-.48,2.62A6.68,6.68,0,0,1,69,33.51a19.49,19.49,0,0,1-2.4,2,19.89,19.89,0,0,0-1.68,1.34,3,3,0,0,0-.77,1.07,3.54,3.54,0,0,0-.21,1.28v1.07Zm-.59,6.17a2.78,2.78,0,0,1,.92-2.38,3.67,3.67,0,0,1,2.25-.69,3.58,3.58,0,0,1,2.22.69,2.76,2.76,0,0,1,.92,2.38,2.77,2.77,0,0,1-.92,2.34,3.48,3.48,0,0,1-2.22.72,3.57,3.57,0,0,1-2.25-.72A2.8,2.8,0,0,1,58.54,46.44Z" transform="translate(-6.6 -5.13)"/></svg>