<svg xmlns="http://www.w3.org/2000/svg" width="150.756" height="233.2" viewBox="0 0 150.756 246">
  <g id="Tckt_icon1" transform="translate(-326.811 -754.833)">
    <g id="Group_1441" data-name="Group 1441" transform="translate(-119.92 313.845)">
      <g id="Group_1437" data-name="Group 1437" transform="translate(446.731 440.988)">
        <path id="Path_5987" data-name="Path 5987" d="M492.655,661.958c-9.168.012-19.4.034-32.486.067-3.427.008-4.128-.942-4.114-3.69.115-22.659.065-115.339.065-138,0-22.548.055-45.094-.071-67.641-.016-2.861.607-3.932,4.272-3.91,24.234.148,19.558.135,43.792.012,3.441-.018,4.468.738,4.417,3.793-.206,12.636-.008,25.279-.152,37.917-.028,2.493.6,3.3,3.671,3.267,14.75-.152,29.5.01,44.253-.135,3.19-.032,3.965.829,3.956,3.481-.042,12.852-.067,38.21-.073,65.505,3.081.022,6.162.051,9.245.069,0-30.111.024-58.4.057-73.791a6.515,6.515,0,0,0-2.651-5.361q-23.811-20.457-47.439-41.071c-1.526-1.33-3.1-1.431-4.965-1.431-30.827.014-32.745.053-63.57-.053-3.265-.01-4.146.712-4.13,3.572.137,25.285.079,50.572.079,75.856s.034,120.593-.053,145.877c-.008,2.454.317,3.562,3.736,3.554,18.136-.042,32.155-.067,45.168-.077C494.552,667.208,493.557,664.6,492.655,661.958Zm24.766-208.943c12.694,11.057,25.194,21.949,37.83,32.957-7.371,0-14.946,0-22.521,0q-6.322,0-12.644,0c-1.353,0-2.683.081-2.679-1.65Q517.446,468.675,517.421,453.015Z" transform="translate(-446.731 -440.988)" fill="#082952"/>
        <path id="Path_5988" data-name="Path 5988" d="M479.8,502.935c14.221,0,28.447.087,42.666-.065,3.295-.036,4.136.989,3.847,3.568-.239,2.159.819,4.442-3.679,4.417-28.839-.16-28.769-.158-57.608,0-4.51.026-3.386-2.305-3.649-4.438-.323-2.626.635-3.572,3.876-3.538C479.739,503.016,465.314,502.935,479.8,502.935Z" transform="translate(-432.452 -380.421)" fill="#082952"/>
        <path id="Path_5989" data-name="Path 5989" d="M479.385,496.417c-14.35,0,.208-.117-14.138.081-3.685.049-4.11-1.276-3.867-3.825.208-2.159-.821-4.341,3.665-4.312,28.833.182,28.756.182,57.588,0,4.484-.028,3.461,2.149,3.667,4.31.241,2.547-.176,3.876-3.863,3.827C508.09,496.3,493.736,496.417,479.385,496.417Z" transform="translate(-432.447 -394.62)" fill="#082952"/>
        <path id="Path_5990" data-name="Path 5990" d="M479.377,481.851c-14.35,0,.21-.115-14.138.077-3.74.051-3.993-1.419-3.876-3.894.1-2.212-.346-4.027,3.663-4.005,28.831.154,28.752.154,57.582,0,3.985-.022,3.591,1.759,3.68,3.991.1,2.46-.1,3.96-3.863,3.91C508.079,481.734,493.727,481.851,479.377,481.851Z" transform="translate(-432.43 -408.648)" fill="#082952"/>
        <path id="Path_5991" data-name="Path 5991" d="M476.216,459.553c2.529-.049,3.613.562,3.22,2.83a11.317,11.317,0,0,0-.008,3.071c.162,1.549-.667,1.906-2.317,1.9-13.966-.044.98-.051-12.987.006-2.044.01-2.935-.55-2.717-2.343a8.178,8.178,0,0,0,.016-2.386c-.424-2.355.548-3.16,3.39-3.089" transform="translate(-432.443 -422.831)" fill="#082952"/>
      </g>
    </g>
    <path id="info_FILL0_wght400_GRAD0_opsz48" d="M45.061,70.05h6.6V43.63h-6.6Zm2.972-34.566a3.617,3.617,0,0,0,2.587-.991,3.335,3.335,0,0,0,1.046-2.532,3.7,3.7,0,0,0-1.046-2.642,3.59,3.59,0,0,0-5.174,0A3.7,3.7,0,0,0,44.4,31.961a3.335,3.335,0,0,0,1.046,2.532,3.617,3.617,0,0,0,2.587.991Zm0,56.583A42.606,42.606,0,0,1,30.97,88.6a44.364,44.364,0,0,1-23.5-23.5A42.878,42.878,0,0,1,4,47.923,42.606,42.606,0,0,1,7.468,30.86,44.006,44.006,0,0,1,16.935,16.88,45.138,45.138,0,0,1,30.97,7.468,42.878,42.878,0,0,1,48.143,4,42.606,42.606,0,0,1,65.206,7.468,43.965,43.965,0,0,1,88.6,30.86a42.878,42.878,0,0,1,3.468,17.173A42.606,42.606,0,0,1,88.6,65.1a45.138,45.138,0,0,1-9.412,14.036A44.006,44.006,0,0,1,65.206,88.6,42.878,42.878,0,0,1,48.033,92.067Zm.11-6.605a35.888,35.888,0,0,0,26.42-10.953,36.29,36.29,0,0,0,10.9-26.585,35.979,35.979,0,0,0-10.9-26.42,36.108,36.108,0,0,0-26.53-10.9A36.161,36.161,0,0,0,21.558,21.5,36.016,36.016,0,0,0,10.6,48.033,36.069,36.069,0,0,0,21.558,74.508,36.2,36.2,0,0,0,48.143,85.462ZM48.033,48.033Z" transform="translate(385.5 895.967)" fill="#082952"/>
  </g>
</svg>
