<svg xmlns="http://www.w3.org/2000/svg" width="35" height="35" viewBox="0 0 35 35">
  <g id="Group_25" data-name="Group 25" transform="translate(-992 -2297)">
    <g id="Group_14" data-name="Group 14" transform="translate(-10 1101)">
      <g id="Ellipse_18" data-name="Ellipse 18" transform="translate(1002 1196)" fill="none" stroke="#036" stroke-width="2">
        <circle cx="17.5" cy="17.5" r="17.5" stroke="none"/>
        <circle cx="17.5" cy="17.5" r="16.5" fill="none"/>
      </g>
    </g>
    <g id="perm_phone_msg_black_24dp" transform="translate(996 2303)">
      <path id="Path_34" data-name="Path 34" d="M0,0H25.333V25.333H0Z" fill="none"/>
      <path id="Path_35" data-name="Path 35" d="M20.944,16.194a11.991,11.991,0,0,1-3.768-.6,1.077,1.077,0,0,0-1.077.253l-2.322,2.322a15.912,15.912,0,0,1-6.956-6.946L9.143,8.89a1.036,1.036,0,0,0,.264-1.066,11.992,11.992,0,0,1-.6-3.768A1.059,1.059,0,0,0,7.75,3H4.056A1.059,1.059,0,0,0,3,4.056,17.943,17.943,0,0,0,20.944,22,1.059,1.059,0,0,0,22,20.944V17.25A1.059,1.059,0,0,0,20.944,16.194ZM12.5,3V13.556l3.167-3.167H22V3Z" transform="translate(0.167 0.167)" fill="#036"/>
    </g>
    <rect id="Rectangle_120" data-name="Rectangle 120" width="7" height="5" transform="translate(1010 2307)" fill="#fff"/>
  </g>
</svg>
